
<!-- Generator: visioncortex VTracer 0.6.4 -->
<svg version="1.1" xmlns="http://www.w3.org/2000/svg" viewBox="0 0 500 500" preserveAspectRatio="xMidYMid meet">
<path d="M0 0 C2.597 -0.359 2.597 -0.359 6 0 C8.416 1.849 10.356 3.585 12.448 5.751 C13.369 6.668 13.369 6.668 14.308 7.604 C16.331 9.625 18.331 11.668 20.332 13.711 C21.732 15.12 23.134 16.528 24.537 17.934 C28.224 21.639 31.893 25.361 35.558 29.088 C38.559 32.132 41.572 35.163 44.586 38.193 C48.172 41.799 51.753 45.41 55.332 49.023 C56.018 49.716 56.704 50.408 57.41 51.121 C59.343 53.074 61.271 55.031 63.198 56.99 C63.775 57.572 64.351 58.154 64.944 58.753 C68.362 62.237 70.16 64.246 70.5 69.125 C70.388 72.897 69.847 74.716 67.278 77.477 C66.638 78.168 65.998 78.859 65.339 79.572 C64.567 80.373 63.795 81.174 63 82 C62.555 82.463 62.11 82.927 61.652 83.404 C57.821 87.386 53.945 91.322 50.059 95.25 C49.444 95.872 48.829 96.493 48.195 97.133 C44.95 100.411 41.7 103.685 38.448 106.957 C35.764 109.658 33.089 112.369 30.421 115.086 C27.184 118.383 23.933 121.665 20.671 124.937 C19.434 126.182 18.203 127.433 16.977 128.688 C15.266 130.438 13.537 132.168 11.802 133.895 C11.302 134.415 10.802 134.935 10.286 135.472 C7.779 137.928 6.267 138.958 2.762 139.507 C1.395 139.256 1.395 139.256 0 139 C-2.199 135.701 -2.249 134.653 -2.273 130.816 C-2.294 129.806 -2.315 128.796 -2.336 127.756 C-2.362 125.631 -2.38 123.506 -2.391 121.381 C-2.414 120.37 -2.437 119.358 -2.461 118.316 C-2.469 117.393 -2.477 116.469 -2.486 115.518 C-3.171 112.163 -4.335 111.121 -7 109 C-9.943 108.388 -9.943 108.388 -13.25 108.458 C-15.147 108.427 -15.147 108.427 -17.083 108.396 C-17.756 108.394 -18.429 108.392 -19.123 108.39 C-21.238 108.383 -23.351 108.349 -25.466 108.309 C-31.477 108.198 -37.488 108.136 -43.499 108.087 C-47.18 108.056 -50.861 107.995 -54.542 107.918 C-55.941 107.895 -57.341 107.883 -58.741 107.883 C-69.582 107.88 -69.582 107.88 -72.962 105.782 C-76.918 101.387 -77.12 96.125 -77.161 90.495 C-77.176 88.877 -77.176 88.877 -77.19 87.227 C-77.194 86.072 -77.199 84.917 -77.203 83.727 C-77.209 82.529 -77.215 81.332 -77.22 80.099 C-77.23 77.569 -77.236 75.039 -77.24 72.509 C-77.25 68.646 -77.281 64.784 -77.312 60.922 C-77.319 58.461 -77.324 56 -77.328 53.539 C-77.34 52.388 -77.353 51.237 -77.366 50.05 C-77.335 38.892 -77.335 38.892 -74 34 C-67.219 30.114 -60.099 30.591 -52.453 30.629 C-50.484 30.616 -48.515 30.603 -46.547 30.589 C-41.721 30.559 -36.895 30.562 -32.07 30.564 C-29.35 30.564 -26.63 30.554 -23.909 30.532 C-21.354 30.514 -18.799 30.512 -16.243 30.529 C-14.511 30.514 -14.511 30.514 -12.743 30.498 C-11.728 30.498 -10.713 30.499 -9.667 30.499 C-6.288 29.867 -5.104 28.665 -3 26 C-2.397 23.568 -2.397 23.568 -2.461 20.938 C-2.438 19.976 -2.415 19.014 -2.391 18.023 C-2.385 17.026 -2.38 16.028 -2.375 15 C-2.349 13.021 -2.316 11.042 -2.273 9.062 C-2.267 8.187 -2.262 7.312 -2.255 6.41 C-1.984 3.849 -1.29 2.209 0 0 Z " fill="#E6E7EB" transform="translate(157,241)"/>
<path d="M0 0 C0.916 0.163 1.832 0.325 2.776 0.493 C4.975 3.792 5.024 4.84 5.049 8.677 C5.07 9.687 5.09 10.697 5.112 11.737 C5.138 13.862 5.156 15.987 5.166 18.112 C5.19 19.124 5.213 20.135 5.237 21.177 C5.245 22.1 5.253 23.024 5.262 23.975 C5.947 27.331 7.036 28.468 9.776 30.493 C13.783 31.36 17.61 31.617 21.702 31.619 C22.846 31.623 23.991 31.627 25.17 31.631 C26.392 31.632 27.614 31.633 28.873 31.634 C31.474 31.652 34.075 31.672 36.676 31.692 C40.767 31.723 44.857 31.745 48.948 31.744 C52.903 31.743 56.856 31.781 60.811 31.821 C62.035 31.814 63.259 31.807 64.52 31.8 C72.948 31.921 72.948 31.921 77.036 34.747 C78.784 37.505 79.443 38.887 79.58 42.103 C79.627 43.065 79.673 44.027 79.72 45.019 C79.748 46.738 79.748 46.738 79.776 48.493 C79.789 49.176 79.802 49.859 79.815 50.563 C79.901 55.43 79.918 60.294 79.906 65.162 C79.901 67.724 79.906 70.286 79.913 72.849 C79.917 77.731 79.859 82.611 79.776 87.493 C79.764 88.603 79.764 88.603 79.752 89.736 C79.722 91.797 79.657 93.855 79.58 95.915 C79.547 97.071 79.513 98.227 79.478 99.418 C78.556 103.453 77.013 104.972 73.776 107.493 C70.113 108.49 66.639 108.617 62.856 108.619 C61.104 108.625 61.104 108.625 59.316 108.631 C58.064 108.632 56.812 108.633 55.522 108.634 C53.547 108.647 51.571 108.661 49.596 108.676 C44.734 108.714 39.872 108.746 35.01 108.744 C32.277 108.743 29.545 108.755 26.812 108.783 C24.24 108.808 21.668 108.814 19.096 108.8 C17.931 108.816 16.767 108.833 15.567 108.85 C14.542 108.853 13.518 108.857 12.463 108.861 C8.803 109.722 7.762 111.387 5.776 114.493 C5.164 116.936 5.164 116.936 5.202 119.47 C5.174 120.388 5.146 121.305 5.118 122.251 C5.108 123.197 5.098 124.143 5.088 125.118 C5.046 127.006 5.001 128.894 4.952 130.782 C4.94 131.614 4.929 132.447 4.918 133.304 C4.776 135.493 4.776 135.493 3.776 138.493 C0.679 139.339 0.679 139.339 -3.224 139.493 C-5.779 137.716 -7.568 136.177 -9.679 133.963 C-10.281 133.363 -10.884 132.763 -11.504 132.145 C-13.489 130.16 -15.444 128.148 -17.4 126.134 C-18.774 124.748 -20.149 123.364 -21.526 121.981 C-25.145 118.337 -28.739 114.669 -32.329 110.996 C-35.265 108 -38.218 105.021 -41.171 102.043 C-47.271 95.893 -53.359 89.732 -59.417 83.541 C-59.978 82.97 -60.54 82.4 -61.119 81.812 C-67.518 75.252 -67.518 75.252 -67.912 70.431 C-67.726 66.047 -66.462 64.155 -63.475 60.998 C-62.654 60.124 -61.834 59.251 -60.989 58.351 C-60.076 57.408 -59.164 56.465 -58.224 55.493 C-57.753 55.003 -57.282 54.513 -56.796 54.008 C-49.41 46.334 -41.884 38.795 -34.376 31.24 C-31.803 28.649 -29.238 26.049 -26.681 23.442 C-23.572 20.273 -20.448 17.118 -17.313 13.974 C-16.127 12.779 -14.945 11.579 -13.769 10.373 C-12.13 8.696 -10.474 7.038 -8.811 5.383 C-8.333 4.885 -7.854 4.386 -7.361 3.872 C-4.902 1.465 -3.438 0.526 0 0 Z " fill="#E6E7EB" transform="translate(261.2241973876953,165.50686645507813)"/>
<path d="M0 0 C1.989 0.118 1.989 0.118 4 1 C5.201 2.794 5.201 2.794 6.184 5.113 C6.554 5.949 6.925 6.785 7.307 7.646 C7.866 8.966 7.866 8.966 8.438 10.312 C12.667 20.254 17.075 23.842 26.812 28.25 C27.601 28.614 28.389 28.977 29.201 29.352 C31.131 30.241 33.065 31.121 35 32 C35 33.32 35 34.64 35 36 C33.903 36.543 32.806 37.085 31.676 37.645 C30.221 38.367 28.767 39.09 27.312 39.812 C26.591 40.169 25.87 40.525 25.127 40.893 C23.712 41.597 22.302 42.31 20.896 43.033 C19.362 43.815 17.803 44.55 16.238 45.27 C12.906 47.846 11.597 51.097 9.875 54.875 C4.813 65.604 4.813 65.604 3 68 C1.68 68 0.36 68 -1 68 C-1.241 67.451 -1.482 66.901 -1.731 66.335 C-2.846 63.82 -3.985 61.317 -5.125 58.812 C-5.504 57.948 -5.883 57.084 -6.273 56.193 C-10.752 46.452 -16.796 43.307 -26.518 39.596 C-28.613 38.746 -28.613 38.746 -32 37 C-32.712 34.891 -32.712 34.891 -33 33 C-29 29.642 -24.333 27.802 -19.576 25.781 C-11.799 22.318 -8.384 17.544 -5.312 9.812 C-2.225 2.225 -2.225 2.225 0 0 Z " fill="#E8E8EC" transform="translate(375,90)"/>
<path d="M0 0 C2.25 0.062 2.25 0.062 5 1 C5.947 2.699 6.888 4.403 7.754 6.145 C10 9.489 13.501 11.157 17 13 C15.36 16.922 13.5 17.838 9.754 19.785 C6.717 21.889 5.578 24.718 4 28 C2.68 28 1.36 28 0 28 C-1.238 26.391 -1.238 26.391 -2.312 24.25 C-4.859 19.762 -7.377 18.176 -12 16 C-12 14.68 -12 13.36 -12 12 C-10.391 10.762 -10.391 10.762 -8.25 9.688 C-3.762 7.141 -2.176 4.623 0 0 Z " fill="#EAEAED" transform="translate(409,74)"/>
</svg>