
<!-- Generator: visioncortex VTracer 0.6.4 -->
<svg version="1.1" xmlns="http://www.w3.org/2000/svg" viewBox="0 0 500 500" preserveAspectRatio="xMidYMid meet">
<path d="M0 0 C2.167 3.25 2.248 4.206 2.273 7.965 C2.294 8.93 2.315 9.895 2.336 10.889 C2.362 12.917 2.38 14.946 2.391 16.975 C2.43 22.64 2.43 22.64 4.789 27.629 C8.729 30.072 12.307 30.124 16.883 30.126 C18.66 30.132 18.66 30.132 20.473 30.138 C21.749 30.139 23.025 30.14 24.34 30.141 C26.348 30.154 28.356 30.168 30.364 30.183 C35.312 30.221 40.26 30.253 45.208 30.25 C47.986 30.25 50.764 30.262 53.542 30.289 C56.157 30.315 58.773 30.321 61.388 30.307 C71.214 30.442 71.214 30.442 74.28 33.292 C76.906 37.427 77.127 40.757 77.145 45.607 C77.152 46.732 77.158 47.857 77.165 49.015 C77.166 50.831 77.166 50.831 77.168 52.684 C77.171 53.931 77.175 55.179 77.178 56.464 C77.183 59.103 77.186 61.742 77.185 64.38 C77.185 67.754 77.199 71.127 77.216 74.501 C77.23 77.728 77.229 80.956 77.23 84.184 C77.238 85.392 77.245 86.6 77.252 87.846 C77.249 88.973 77.246 90.101 77.243 91.263 C77.244 92.253 77.246 93.242 77.247 94.262 C76.877 98.368 75.753 101.023 73.241 104.281 C70.369 106.484 68.745 106.499 65.149 106.498 C63.971 106.508 62.792 106.518 61.578 106.529 C60.309 106.521 59.039 106.512 57.73 106.504 C55.729 106.518 53.729 106.533 51.728 106.548 C48.925 106.565 46.122 106.564 43.32 106.563 C38.428 106.561 33.536 106.568 28.645 106.603 C26.043 106.62 23.441 106.623 20.838 106.61 C14.508 106.647 9.519 106.736 4 110 C2.776 112.447 2.843 114.133 2.789 116.867 C2.761 117.835 2.732 118.803 2.703 119.801 C2.651 121.842 2.607 123.884 2.57 125.926 C2.539 126.896 2.508 127.867 2.477 128.867 C2.457 129.755 2.437 130.643 2.417 131.558 C1.928 134.42 0.893 135.838 -1 138 C-6.626 137.67 -9.366 135.338 -13.141 131.458 C-14.013 130.592 -14.013 130.592 -14.903 129.709 C-16.816 127.802 -18.711 125.878 -20.605 123.953 C-21.934 122.62 -23.263 121.289 -24.594 119.958 C-27.378 117.168 -30.153 114.369 -32.923 111.564 C-36.468 107.974 -40.029 104.398 -43.595 100.828 C-46.341 98.078 -49.08 95.323 -51.818 92.566 C-53.129 91.246 -54.441 89.928 -55.754 88.61 C-57.59 86.765 -59.42 84.913 -61.247 83.06 C-61.788 82.518 -62.328 81.977 -62.886 81.419 C-66.742 77.485 -69.628 74.189 -70.562 68.688 C-69.024 58.601 -57.983 50.709 -51.016 43.785 C-49.751 42.521 -48.486 41.257 -47.222 39.993 C-44.586 37.358 -41.946 34.727 -39.304 32.098 C-35.914 28.725 -32.53 25.345 -29.149 21.963 C-26.545 19.359 -23.938 16.758 -21.33 14.158 C-20.081 12.912 -18.832 11.665 -17.584 10.417 C-15.847 8.682 -14.106 6.95 -12.364 5.219 C-11.848 4.702 -11.332 4.185 -10.799 3.653 C-6.932 -0.18 -5.395 -1.619 0 0 Z " fill="#101521" transform="translate(264,167)"/>
<path d="M0 0 C4.124 0.721 6.294 3.343 9.106 6.236 C9.719 6.847 10.333 7.458 10.965 8.088 C12.991 10.112 14.998 12.153 17.005 14.195 C18.407 15.604 19.81 17.012 21.214 18.418 C24.154 21.369 27.085 24.327 30.01 27.291 C33.765 31.097 37.532 34.89 41.305 38.678 C44.897 42.284 48.483 45.895 52.068 49.508 C52.755 50.2 53.443 50.892 54.151 51.606 C56.088 53.559 58.021 55.516 59.954 57.474 C60.531 58.056 61.109 58.638 61.704 59.238 C65.043 62.631 66.937 64.726 67.396 69.484 C67.273 73.915 66.048 75.796 63.028 78.984 C62.207 79.857 61.386 80.73 60.54 81.629 C59.626 82.571 58.712 83.514 57.771 84.484 C57.299 84.974 56.826 85.464 56.34 85.969 C52.603 89.841 48.825 93.671 45.037 97.492 C44.444 98.09 43.852 98.688 43.242 99.303 C40.12 102.451 36.995 105.595 33.868 108.737 C31.289 111.33 28.718 113.929 26.152 116.535 C23.034 119.703 19.904 122.857 16.765 126.004 C15.576 127.2 14.391 128.4 13.21 129.604 C11.567 131.28 9.908 132.938 8.245 134.594 C7.762 135.093 7.28 135.591 6.783 136.105 C4.56 138.288 3.17 139.421 0.054 139.915 C-2.229 139.484 -2.229 139.484 -4.229 137.484 C-4.5 135.425 -4.5 135.425 -4.538 132.906 C-4.563 131.992 -4.588 131.078 -4.614 130.137 C-4.649 128.218 -4.68 126.298 -4.708 124.379 C-4.91 116.985 -4.91 116.985 -8.229 110.484 C-12.328 108.782 -15.831 108.235 -20.247 108.229 C-21.412 108.222 -22.576 108.215 -23.776 108.208 C-25.02 108.209 -26.264 108.21 -27.545 108.211 C-29.515 108.196 -31.485 108.181 -33.455 108.164 C-38.294 108.127 -43.134 108.109 -47.974 108.104 C-50.697 108.1 -53.419 108.085 -56.142 108.059 C-58.701 108.036 -61.261 108.028 -63.821 108.039 C-64.982 108.026 -66.144 108.012 -67.341 107.999 C-68.36 107.996 -69.378 107.993 -70.428 107.99 C-73.967 107.351 -75.653 105.942 -78.229 103.484 C-79.589 100.766 -79.379 98.597 -79.406 95.554 C-79.419 94.309 -79.432 93.064 -79.445 91.781 C-79.453 90.415 -79.461 89.049 -79.467 87.684 C-79.471 86.997 -79.475 86.31 -79.48 85.602 C-79.501 81.965 -79.515 78.329 -79.524 74.692 C-79.535 70.939 -79.57 67.187 -79.609 63.434 C-79.636 60.545 -79.644 57.657 -79.648 54.768 C-79.652 53.385 -79.664 52.002 -79.683 50.619 C-79.707 48.681 -79.704 46.742 -79.699 44.804 C-79.705 43.702 -79.711 42.599 -79.717 41.464 C-79.115 37.79 -77.791 36.134 -75.229 33.484 C-72.604 32.172 -70.637 32.345 -67.697 32.327 C-65.959 32.311 -65.959 32.311 -64.187 32.296 C-62.928 32.288 -61.67 32.281 -60.374 32.274 C-58.402 32.253 -56.431 32.232 -54.459 32.21 C-49.591 32.157 -44.723 32.113 -39.855 32.083 C-37.127 32.066 -34.4 32.041 -31.673 32.008 C-29.104 31.977 -26.535 31.958 -23.966 31.951 C-17.67 31.862 -12.731 31.687 -7.229 28.484 C-3.75 23.488 -4.796 15.757 -4.663 9.881 C-4.618 8.503 -4.618 8.503 -4.573 7.098 C-4.554 6.26 -4.535 5.423 -4.516 4.56 C-4.093 1.501 -2.962 0.644 0 0 Z " fill="#101521" transform="translate(160.22906494140625,240.51553344726563)"/>
<path d="M0 0 C0.99 0 1.98 0 3 0 C4.482 3.103 5.96 6.207 7.438 9.312 C7.858 10.194 8.279 11.075 8.713 11.982 C9.116 12.83 9.519 13.678 9.934 14.551 C10.305 15.331 10.677 16.111 11.06 16.915 C12 19 12 19 13 22 C15.144 23.027 15.144 23.027 18 24 C19.408 24.635 20.81 25.285 22.207 25.945 C22.958 26.3 23.709 26.654 24.482 27.02 C25.251 27.384 26.02 27.749 26.812 28.125 C27.601 28.498 28.389 28.87 29.201 29.254 C31.135 30.168 33.067 31.084 35 32 C34.755 34.364 34.755 34.364 34 37 C32.222 38.267 32.222 38.267 29.922 39.176 C29.09 39.53 28.259 39.883 27.402 40.248 C25.652 40.951 23.899 41.649 22.145 42.342 C15.8 45.055 12.991 47.821 10 54 C9.66 54.645 9.32 55.29 8.969 55.954 C8.009 57.789 7.092 59.638 6.188 61.5 C5.876 62.132 5.565 62.763 5.244 63.414 C4.492 64.941 3.746 66.47 3 68 C1.126 67.762 1.126 67.762 -1 67 C-2.118 65.177 -2.118 65.177 -3.016 62.809 C-8.273 49.886 -8.273 49.886 -19.25 42 C-21.21 41.213 -23.177 40.469 -25.166 39.758 C-28.072 38.557 -30.455 36.834 -33 35 C-32 32 -32 32 -30.206 30.913 C-29.058 30.418 -29.058 30.418 -27.887 29.914 C-27.051 29.54 -26.215 29.166 -25.354 28.781 C-23.589 28.016 -21.823 27.253 -20.057 26.492 C-11.442 22.631 -8.577 17.626 -4.812 9.25 C-4.112 7.713 -3.411 6.176 -2.707 4.641 C-2.403 3.965 -2.098 3.29 -1.784 2.595 C-1 1 -1 1 0 0 Z " fill="#101520" transform="translate(375,90)"/>
<path d="M0 0 C0.99 0 1.98 0 3 0 C4.141 1.609 4.141 1.609 5.25 3.75 C7.834 8.207 10.383 9.828 15 12 C15 13.32 15 14.64 15 16 C13.391 17.238 13.391 17.238 11.25 18.312 C6.762 20.859 5.176 23.377 3 28 C1.25 27.875 1.25 27.875 -1 27 C-1.925 25.579 -2.846 24.153 -3.719 22.699 C-6.175 19.442 -9.662 17.285 -13 15 C-11.352 11.156 -11.352 11.156 -8.188 9.75 C-4.316 7.625 -3.181 5.469 -1.176 1.645 C-0.788 1.102 -0.4 0.559 0 0 Z " fill="#0F141F" transform="translate(410,74)"/>
</svg>